<?xml version="1.0" encoding="UTF-8" standalone="no"?>
<!-- Created with Inkscape (http://www.inkscape.org/) -->

<svg
   xmlns:dc="http://purl.org/dc/elements/1.1/"
   xmlns:cc="http://creativecommons.org/ns#"
   xmlns:rdf="http://www.w3.org/1999/02/22-rdf-syntax-ns#"
   xmlns:svg="http://www.w3.org/2000/svg"
   xmlns="http://www.w3.org/2000/svg"
   xmlns:sodipodi="http://sodipodi.sourceforge.net/DTD/sodipodi-0.dtd"
   xmlns:inkscape="http://www.inkscape.org/namespaces/inkscape"
   width="2594.28"
   height="510"
   id="svg20440"
   version="1.1"
   inkscape:version="0.48.1 "
   sodipodi:docname="Neues Dokument 3">
  <defs
     id="defs20442">
    <clipPath
       clipPathUnits="userSpaceOnUse"
       id="clipPath10714">
      <path
         inkscape:connector-curvature="0"
         d="m 73.382,508.954 1.943,-35.223 183.505,9.14 -1.943,35.212 -183.505,-9.129"
         id="path10716" />
    </clipPath>
    <clipPath
       clipPathUnits="userSpaceOnUse"
       id="clipPath10720">
      <path
         inkscape:connector-curvature="0"
         d="m 73.382,508.954 183.534,9.129 1.958,-35.463 -183.534,-9.129 -1.958,35.463"
         id="path10722" />
    </clipPath>
  </defs>
  <sodipodi:namedview
     id="base"
     pagecolor="#ffffff"
     bordercolor="#666666"
     borderopacity="1.0"
     inkscape:pageopacity="0.0"
     inkscape:pageshadow="2"
     inkscape:zoom="0.59978108"
     inkscape:cx="1297.14"
     inkscape:cy="255"
     inkscape:document-units="px"
     inkscape:current-layer="layer1"
     showgrid="false"
     fit-margin-top="0"
     fit-margin-left="0"
     fit-margin-right="0"
     fit-margin-bottom="0"
     inkscape:window-width="1680"
     inkscape:window-height="990"
     inkscape:window-x="-4"
     inkscape:window-y="-4"
     inkscape:window-maximized="1" />
  <metadata
     id="metadata20445">
    <rdf:RDF>
      <cc:Work
         rdf:about="">
        <dc:format>image/svg+xml</dc:format>
        <dc:type
           rdf:resource="http://purl.org/dc/dcmitype/StillImage" />
        <dc:title></dc:title>
      </cc:Work>
    </rdf:RDF>
  </metadata>
  <g
     inkscape:label="Ebene 1"
     inkscape:groupmode="layer"
     id="layer1"
     transform="translate(-75.869971,25.49244)">
    <g
       id="g10710"
       transform="matrix(14.044644,0.73844125,0.73844125,-14.044644,-1326.3211,7071.9279)">
      <g
         id="g10712"
         clip-path="url(#clipPath10714)">
        <g
           id="g10718"
           clip-path="url(#clipPath10720)">
          <g
             id="g10724"
             transform="translate(86.306,489.201)">
            <path
               d="m 0,0 -6.993,-0.351 6.376,10.182 0.073,0 L 0,0 z M 3.843,2.939 C 3.66,6.26 4.35,9.43 5.717,12.259 L 5.561,15.128 -2.421,14.727 -11.833,0 -11.56,-4.946 -0.2,-4.384 0.076,-9.37 6.893,-9.029 6.734,-6.16 C 5.063,-3.481 4.026,-0.391 3.843,2.939"
               style="fill:#f47b20;fill-opacity:1;fill-rule:nonzero;stroke:none"
               id="path10726"
               inkscape:connector-curvature="0" />
          </g>
          <g
             id="g10728"
             transform="translate(118.675,482.249)">
            <path
               d="m 0,0 c -1.983,-1.254 -4.332,-2.026 -6.879,-2.157 -7.608,-0.371 -14.097,5.167 -14.495,12.4 -0.399,7.223 5.444,13.382 13.05,13.764 2.549,0.12 4.969,-0.412 7.08,-1.455 l -0.279,5.036 c -2.201,0.722 -4.58,1.063 -7.05,0.943 -10.242,-0.512 -18.107,-8.808 -17.57,-18.519 0.537,-9.731 9.272,-17.205 19.513,-16.693 2.47,0.12 4.799,0.702 6.908,1.635 L 0,0 m 46.299,-1.966 -0.495,0.02 0.513,3.3 -0.752,-0.03 0.057,0.361 0.749,0.031 0.045,0.25 c 0.129,0.843 0.551,1.866 1.676,1.926 0.259,0.01 0.469,-0.02 0.684,-0.11 C 48.737,3.541 48.677,3.301 48.655,3.21 48.455,3.381 48.158,3.471 47.832,3.451 47.173,3.421 47.007,2.638 46.928,2.097 l -0.056,-0.351 1.201,0.06 -0.055,-0.361 -1.202,-0.061 -0.517,-3.35 z m 0,0 -0.037,-0.221 c -0.124,-0.823 -0.558,-1.876 -1.677,-1.926 -0.259,-0.01 -0.476,0.01 -0.682,0.11 0.028,0.231 0.089,0.482 0.118,0.552 0.202,-0.16 0.5,-0.241 0.817,-0.221 0.667,0.03 0.833,0.823 0.911,1.355 l 0.055,0.371 0.495,-0.02"
               style="fill:#f47b20;fill-opacity:1;fill-rule:nonzero;stroke:none"
               id="path10730"
               inkscape:connector-curvature="0" />
          </g>
          <g
             id="g10732"
             transform="translate(169.035,480.674)">
            <path
               d="M 0,0 C 0.935,0.06 1.472,0.752 1.6,1.605 1.738,2.458 1.383,3.27 0.474,3.22 -0.46,3.18 -0.99,2.478 -1.127,1.625 -1.255,0.762 -0.91,-0.04 0,0 z M 0.695,3.622 C 1.83,3.682 2.301,2.709 2.134,1.645 1.962,0.492 0.988,-0.341 -0.23,-0.391 c -1.15,-0.06 -1.597,0.903 -1.438,1.956 0.18,1.154 1.161,1.996 2.363,2.057 M 5.904,3.381 C 5.801,3.401 5.701,3.401 5.584,3.401 5.008,3.371 4.529,2.669 4.204,2.197 l -0.351,-2.287 -0.5,-0.03 0.593,3.812 0.492,0.02 -0.154,-1.013 0.018,0 C 4.624,3.22 5.166,3.852 5.775,3.872 l 0.226,0 C 5.969,3.702 5.937,3.531 5.904,3.381 m 5.958,0.1 C 11.875,3.561 11.611,3.772 10.919,3.742 10.018,3.702 9.377,3.06 9.234,2.127 9.118,1.364 9.349,0.522 10.208,0.562 c 0.383,0.02 0.818,0.321 1.339,0.883 l 0.315,2.036 z m -0.493,-3.2 0.118,0.772 C 11.006,0.492 10.448,0.13 9.948,0.11 8.931,0.06 8.538,1.094 8.686,2.067 c 0.18,1.143 1.176,2.016 2.462,2.086 0.583,0.02 0.939,-0.06 1.282,-0.2 L 11.87,0.301 11.369,0.281 m 5.054,0.873 c 0.014,-0.101 0.235,-0.301 0.927,-0.261 0.9,0.04 1.543,0.672 1.695,1.565 C 19.168,3.26 18.921,4.093 18.079,4.053 17.686,4.033 17.244,3.722 16.723,3.17 l -0.3,-2.016 z M 17.216,6.37 16.785,3.561 c 0.488,0.552 1.037,0.923 1.563,0.943 1,0.051 1.388,-0.923 1.227,-1.956 -0.162,-1.154 -1.16,-1.996 -2.445,-2.066 -0.592,-0.031 -0.939,0.06 -1.289,0.18 l 0.873,5.678 0.502,0.03 m 6.167,-2.608 c -0.028,0.472 -0.362,0.612 -0.762,0.592 -0.667,-0.03 -1.315,-0.572 -1.39,-1.475 1.476,0.07 2.18,0.361 2.152,0.883 z M 23.658,1.455 C 23.197,1.063 22.644,0.742 22.045,0.712 20.986,0.662 20.5,1.555 20.665,2.679 c 0.147,0.973 0.894,1.986 2.096,2.046 0.617,0.03 1.115,-0.211 1.151,-0.873 0.046,-0.832 -1.006,-1.173 -2.707,-1.254 -0.081,-0.662 0.116,-1.494 1.083,-1.454 0.484,0.03 0.929,0.291 1.402,0.692 L 23.658,1.455 m 2.225,0.963 c -0.111,-0.723 -0.167,-1.094 0.318,-1.054 0.274,0.01 0.598,0.201 0.956,0.402 L 27.117,1.405 C 26.763,1.174 26.332,0.923 25.908,0.903 25.148,0.873 25.286,1.726 25.39,2.408 l 0.307,2.006 -0.659,-0.03 0.055,0.361 0.659,0.03 0.172,1.134 0.507,0.06 -0.178,-1.164 1.31,0.061 C 27.544,4.745 27.502,4.585 27.465,4.504 L 26.198,4.434 25.883,2.418 m 3.336,0.17 c -0.111,-0.722 -0.166,-1.083 0.317,-1.063 0.276,0.02 0.6,0.201 0.957,0.401 L 30.454,1.575 C 30.099,1.344 29.67,1.094 29.244,1.073 28.485,1.033 28.622,1.896 28.727,2.568 l 0.307,2.007 -0.659,-0.031 0.055,0.362 0.659,0.03 0.172,1.143 0.506,0.061 -0.178,-1.164 1.311,0.06 C 30.88,4.906 30.839,4.745 30.802,4.675 L 29.534,4.605 29.219,2.588 m 5.217,1.726 c -0.027,0.471 -0.361,0.612 -0.762,0.592 -0.667,-0.03 -1.315,-0.572 -1.39,-1.475 1.476,0.08 2.18,0.351 2.152,0.883 z M 34.713,2.016 C 34.25,1.605 33.699,1.294 33.099,1.264 c -1.06,-0.05 -1.544,0.833 -1.381,1.956 0.148,0.983 0.895,1.997 2.096,2.047 0.617,0.04 1.115,-0.211 1.152,-0.873 C 35.012,3.571 33.96,3.23 32.258,3.14 c -0.08,-0.642 0.116,-1.495 1.083,-1.435 0.484,0.021 0.929,0.291 1.402,0.673 l -0.03,-0.362 m 4.034,3 c -0.102,0.02 -0.203,0.02 -0.319,0.02 -0.575,-0.03 -1.056,-0.742 -1.381,-1.204 l -0.35,-2.287 -0.5,-0.03 0.592,3.812 0.492,0.02 -0.153,-1.013 0.017,0 c 0.321,0.521 0.865,1.154 1.474,1.184 l 0.226,-0.01 C 38.813,5.337 38.781,5.166 38.747,5.016 m 5.878,0.03 c -0.29,0.261 -0.653,0.321 -1.061,0.301 -0.909,-0.04 -1.437,-0.803 -1.553,-1.575 -0.129,-0.843 0.148,-1.625 1.073,-1.575 0.426,0.02 0.872,0.271 1.328,0.662 L 44.392,2.458 C 43.905,2.037 43.35,1.776 42.851,1.746 c -1.127,-0.051 -1.54,0.923 -1.387,1.946 0.179,1.143 1.135,2.016 2.352,2.076 0.317,0.01 0.661,-0.02 0.921,-0.16 -0.03,-0.201 -0.054,-0.381 -0.112,-0.562 m 2.75,-2.678 C 48.31,2.408 48.849,3.1 48.977,3.953 49.113,4.825 48.76,5.618 47.851,5.578 46.917,5.538 46.386,4.845 46.249,3.993 46.121,3.12 46.466,2.327 47.375,2.368 z m 0.695,3.621 c 1.135,0.05 1.606,-0.933 1.44,-1.976 -0.171,-1.154 -1.146,-1.987 -2.363,-2.057 -1.151,-0.05 -1.598,0.913 -1.438,1.967 0.178,1.153 1.161,1.996 2.361,2.066"
               style="fill:#f47b20;fill-opacity:1;fill-rule:nonzero;stroke:none"
               id="path10734"
               inkscape:connector-curvature="0" />
          </g>
          <g
             id="g10736"
             transform="translate(220.626,483.061)">
            <path
               d="m 0,0 -0.495,0.01 0.512,3.311 -0.75,-0.041 0.055,0.362 0.75,0.03 0.045,0.261 C 0.247,4.765 0.667,5.788 1.793,5.839 2.052,5.849 2.262,5.829 2.477,5.738 2.44,5.498 2.378,5.257 2.358,5.167 2.155,5.337 1.858,5.427 1.533,5.417 0.873,5.377 0.708,4.595 0.63,4.043 L 0.573,3.702 1.775,3.762 1.719,3.411 0.518,3.341 0,0 z m 0,0 -0.037,-0.241 c -0.123,-0.802 -0.559,-1.856 -1.675,-1.916 -0.259,-0.01 -0.479,0.01 -0.685,0.121 0.029,0.22 0.092,0.471 0.121,0.541 0.2,-0.15 0.498,-0.241 0.815,-0.23 0.667,0.04 0.832,0.842 0.912,1.364 L -0.495,0.01 0,0"
               style="fill:#f47b20;fill-opacity:1;fill-rule:nonzero;stroke:none"
               id="path10738"
               inkscape:connector-curvature="0" />
          </g>
          <g
             id="g10740"
             transform="translate(223.945,483.222)">
            <path
               d="M 0,0 -0.495,0.02 0.017,3.321 -0.732,3.29 -0.677,3.642 0.074,3.682 0.117,3.933 C 0.247,4.775 0.667,5.788 1.794,5.849 2.053,5.859 2.262,5.839 2.477,5.748 2.44,5.508 2.379,5.257 2.357,5.176 2.157,5.337 1.859,5.437 1.534,5.417 0.875,5.377 0.708,4.595 0.63,4.043 L 0.573,3.702 1.775,3.772 1.719,3.401 0.518,3.341 0,0 z m 0,0 -0.036,-0.241 c -0.124,-0.802 -0.56,-1.856 -1.676,-1.906 -0.259,-0.01 -0.478,0.01 -0.684,0.111 0.029,0.23 0.09,0.471 0.121,0.551 0.199,-0.16 0.497,-0.251 0.814,-0.241 0.667,0.051 0.833,0.843 0.913,1.365 L -0.495,0.02 0,0"
               style="fill:#f47b20;fill-opacity:1;fill-rule:nonzero;stroke:none"
               id="path10742"
               inkscape:connector-curvature="0" />
          </g>
          <g
             id="g10744"
             transform="translate(229.022,486.251)">
            <path
               d="M 0,0 C -0.025,0.482 -0.359,0.622 -0.76,0.602 -1.427,0.572 -2.075,0.02 -2.151,-0.873 -0.674,-0.803 0.029,-0.522 0,0 z m 0.278,-2.297 c -0.463,-0.402 -1.014,-0.713 -1.615,-0.743 -1.06,-0.06 -1.543,0.833 -1.379,1.957 0.147,0.983 0.893,1.996 2.095,2.046 0.617,0.03 1.117,-0.211 1.152,-0.863 0.046,-0.832 -1.007,-1.173 -2.708,-1.264 -0.081,-0.652 0.115,-1.495 1.085,-1.444 0.483,0.03 0.928,0.291 1.399,0.682 L 0.278,-2.297 M 4.38,0.231 C 4.354,0.692 4.02,0.833 3.62,0.813 2.952,0.782 2.304,0.251 2.229,-0.662 c 1.476,0.08 2.18,0.361 2.151,0.893 z M 4.658,-2.077 C 4.194,-2.478 3.644,-2.799 3.043,-2.829 1.983,-2.869 1.5,-1.986 1.663,-0.863 1.81,0.11 2.558,1.124 3.758,1.184 4.375,1.214 4.875,0.973 4.911,0.311 4.957,-0.522 3.904,-0.863 2.204,-0.953 2.123,-1.595 2.319,-2.448 3.286,-2.388 c 0.484,0.02 0.929,0.291 1.402,0.683 L 4.658,-2.077 M 14.049,1.605 13.62,0.722 c -0.426,-0.923 -0.99,-2.076 -1.465,-2.999 l -0.467,-0.02 -0.673,3.24 -0.016,0 C 10.964,0.823 10.709,0.12 10.272,-0.732 L 10.014,-1.214 C 9.817,-1.595 9.583,-2.027 9.352,-2.408 l -0.484,-0.03 -0.608,3.752 0.526,0.02 0.484,-3.32 0.017,0 c 0.043,0.13 0.358,0.943 0.84,1.906 l 0.198,0.361 c 0.141,0.301 0.386,0.732 0.592,1.103 l 0.466,0.02 0.681,-3.25 0.017,0 c 0.107,0.341 0.675,1.705 1.06,2.608 l 0.341,0.813 0.567,0.03 m 2.278,-3.371 c 0.934,0.04 1.473,0.733 1.602,1.585 0.137,0.853 -0.219,1.666 -1.126,1.626 -0.934,-0.041 -1.465,-0.733 -1.603,-1.606 -0.127,-0.852 0.219,-1.655 1.127,-1.605 z m 0.695,3.602 c 1.135,0.07 1.606,-0.913 1.44,-1.966 -0.171,-1.154 -1.146,-1.987 -2.363,-2.047 -1.151,-0.05 -1.598,0.913 -1.438,1.966 0.178,1.154 1.16,1.997 2.361,2.047 m 5.209,-0.231 c -0.102,0.02 -0.203,0.02 -0.318,0.01 -0.576,-0.02 -1.057,-0.732 -1.382,-1.194 l -0.351,-2.297 -0.5,-0.02 0.593,3.812 0.492,0.02 -0.152,-1.013 0.016,0 c 0.322,0.522 0.866,1.144 1.473,1.174 l 0.227,0 C 22.297,1.916 22.265,1.746 22.231,1.605 m 0.803,-3.331 0.898,5.839 0.501,0.02 -0.899,-5.838 -0.5,-0.021 m 5.431,3.441 c -0.263,0.221 -0.609,0.271 -1.026,0.251 -0.944,-0.04 -1.465,-0.732 -1.595,-1.575 -0.117,-0.742 0.066,-1.635 0.966,-1.595 0.418,0.02 0.906,0.411 1.349,0.883 l 0.306,2.036 z m 0.915,2.669 -0.899,-5.849 -0.5,-0.02 0.117,0.773 c -0.45,-0.512 -0.996,-0.913 -1.546,-0.943 -1.093,-0.05 -1.388,1.033 -1.254,1.946 0.179,1.174 1.135,2.016 2.361,2.087 0.309,0.01 0.636,-0.01 0.895,-0.151 l 0.325,2.137 0.501,0.02"
               style="fill:#f47b20;fill-opacity:1;fill-rule:nonzero;stroke:none"
               id="path10746"
               inkscape:connector-curvature="0" />
          </g>
          <g
             id="g10748"
             transform="translate(131.66,498.41)">
            <path
               d="M 0,0 -0.042,-0.01 -1.873,-5.939 2.473,-5.728 0,0 z m -1.797,2.739 3.368,0.17 6.615,-13.824 -3.302,-0.17 -1.457,3.18 -6.03,-0.311 -1.122,-3.301 -3.089,-0.15 5.017,14.406 M 17.03,1.083 c -0.958,0.332 -2.015,0.502 -3.058,0.452 -1.023,-0.04 -2.321,-0.532 -2.236,-2.067 0.135,-2.448 6.598,-1.103 6.859,-5.838 0.17,-3.09 -2.343,-4.394 -5.348,-4.545 -1.618,-0.08 -2.355,0.09 -3.844,0.361 l 0.137,2.558 c 1.052,-0.471 2.243,-0.752 3.414,-0.702 1.13,0.06 2.613,0.682 2.542,1.956 -0.148,2.689 -6.607,1.254 -6.864,5.929 -0.174,3.15 2.341,4.435 4.96,4.575 1.28,0.06 2.481,-0.05 3.587,-0.331 L 17.03,1.083 M 28.023,1.635 C 27.065,1.966 26.009,2.137 24.965,2.087 23.941,2.036 22.644,1.545 22.729,0.01 c 0.134,-2.448 6.598,-1.093 6.858,-5.829 0.171,-3.099 -2.342,-4.394 -5.346,-4.544 -1.62,-0.08 -2.355,0.09 -3.844,0.351 l 0.135,2.568 c 1.053,-0.471 2.244,-0.762 3.415,-0.712 1.13,0.06 2.613,0.692 2.543,1.956 -0.149,2.699 -6.609,1.254 -6.866,5.929 -0.173,3.16 2.342,4.444 4.962,4.575 1.279,0.06 2.48,-0.04 3.586,-0.331 L 28.023,1.635 m 10.518,-9.059 c 3.048,0.151 4.035,2.779 3.894,5.327 -0.137,2.488 -1.491,4.976 -4.453,4.826 -2.962,-0.151 -4.036,-2.749 -3.899,-5.237 0.141,-2.558 1.411,-5.066 4.458,-4.916 z m -0.682,12.38 c 4.666,0.231 7.452,-2.629 7.687,-6.902 0.235,-4.264 -2.174,-7.464 -6.882,-7.705 -4.773,-0.241 -7.453,2.649 -7.692,6.993 -0.238,4.323 2.158,7.383 6.887,7.614 M 59.05,-8.196 c -1.074,-0.291 -2.235,-0.552 -3.363,-0.602 -4.817,-0.251 -8.288,1.876 -8.551,6.651 -0.267,4.836 2.696,7.705 7.745,7.956 0.981,0.04 2.289,-0.071 3.4,-0.422 L 58.199,2.99 c -1.163,0.541 -2.193,0.642 -3.259,0.581 -3.069,-0.14 -4.862,-2.478 -4.704,-5.357 0.159,-2.879 2.153,-4.956 5.327,-4.795 1.173,0.06 2.544,0.371 3.229,0.752 l 0.258,-2.367 m 1.17,14.025 2.983,0.14 0.778,-14.125 -2.982,-0.14 -0.779,14.125 m 12.236,-2.228 -0.042,-0.01 -1.831,-5.928 4.347,0.21 -2.474,5.728 z m -1.796,2.739 3.366,0.171 6.616,-13.824 -3.302,-0.181 -1.457,3.19 -6.03,-0.311 -1.122,-3.3 -3.089,-0.151 5.018,14.406"
               style="fill:#450900;fill-opacity:1;fill-rule:nonzero;stroke:none"
               id="path10750"
               inkscape:connector-curvature="0" />
          </g>
          <g
             id="g10752"
             transform="translate(214.563,503.135)">
            <path
               d="M 0,0 -4.261,-0.211 -4.384,2.006 7.123,2.578 7.246,0.351 2.984,0.14 3.639,-11.758 0.656,-11.908 0,0 M 8.762,2.658 11.744,2.809 12.523,-11.316 9.54,-11.457 8.762,2.658 M 21.745,-8.858 c 3.047,0.15 4.034,2.779 3.894,5.317 -0.137,2.488 -1.491,4.976 -4.452,4.835 -2.963,-0.15 -4.037,-2.759 -3.9,-5.257 0.141,-2.538 1.412,-5.056 4.458,-4.895 z M 21.063,3.521 c 4.666,0.231 7.452,-2.638 7.688,-6.902 0.235,-4.273 -2.174,-7.474 -6.883,-7.714 -4.773,-0.231 -7.454,2.658 -7.692,6.992 -0.239,4.324 2.157,7.383 6.887,7.624 m 9.45,0.221 3.666,0.18 6.249,-10.272 0.042,0 -0.581,10.563 2.855,0.141 0.778,-14.125 -3.644,-0.181 -6.27,10.283 -0.043,-0.01 0.582,-10.564 -2.855,-0.13 -0.779,14.115 m -133.715,-25.1 c -0.821,-0.02 -1.622,0.03 -2.402,0.17 -0.244,0.271 -0.467,0.572 -0.67,0.913 0.963,-0.1 1.985,-0.14 3.041,-0.1 0.012,-0.391 0.021,-0.722 0.031,-0.983 z m -7.081,1.946 -0.038,0.04 c 0.928,-0.351 2.002,-0.632 3.186,-0.802 0.222,-0.341 0.468,-0.622 0.727,-0.863 -1.397,0.331 -2.707,0.883 -3.875,1.625 z m -2.192,6.36 c 1.085,-0.541 2.381,-0.963 3.817,-1.254 0.116,-2.096 0.518,-3.912 1.153,-5.216 -1.223,0.18 -2.336,0.461 -3.29,0.812 -1.03,1.555 -1.655,3.491 -1.68,5.658 z m -1.945,-1.906 c -0.47,1.314 -0.676,2.619 -0.642,3.893 0.41,-0.522 0.961,-1.004 1.622,-1.425 -0.086,-2.087 0.385,-3.993 1.331,-5.497 -0.932,0.872 -1.714,1.896 -2.311,3.029 z m -1.274,5.729 c 0.111,2.337 0.955,4.504 2.328,6.29 -0.021,-0.151 -0.034,-0.311 -0.027,-0.472 0.013,-0.221 0.056,-0.431 0.131,-0.632 -1.304,-1.665 -2.085,-3.511 -2.353,-5.377 l -0.079,0.191 z m -0.004,-0.953 -0.007,0.24 0.024,-0.05 -0.017,-0.19 z m 2.791,5.457 c 0.329,-0.462 0.817,-0.883 1.432,-1.254 -0.16,-0.291 -0.312,-0.582 -0.458,-0.873 -0.814,-1.655 -1.286,-3.3 -1.452,-4.875 -0.661,0.421 -1.21,0.892 -1.631,1.404 0.187,1.896 0.91,3.782 2.109,5.598 z m 1.239,1.665 c 1.002,1.204 2.897,2.478 4.544,3.451 -0.035,-0.1 -0.051,-0.2 -0.045,-0.301 0.013,-0.24 0.147,-0.461 0.365,-0.652 -1.936,-1.334 -3.273,-2.989 -4.326,-4.795 -0.585,0.351 -1.056,0.762 -1.385,1.204 0.265,0.361 0.544,0.732 0.847,1.093 z m 5.968,1.966 c -0.873,-1.454 -1.631,-3.33 -2.168,-5.457 -0.958,0.191 -1.823,0.472 -2.562,0.823 0.993,1.836 2.052,3.3 3.704,5.106 0.254,-0.211 0.609,-0.371 1.026,-0.472 z m -2.667,-7.905 c -0.243,-1.555 -0.343,-3.07 -0.32,-4.474 -1.417,0.281 -2.693,0.702 -3.766,1.234 0.096,1.735 0.569,3.601 1.519,5.528 0.06,0.11 0.12,0.23 0.181,0.351 0.78,-0.361 1.704,-0.652 2.727,-0.843 -0.129,-0.592 -0.244,-1.184 -0.341,-1.796 z m 11.639,-10.403 c -1.765,-1.134 -3.858,-1.836 -6.133,-1.946 l -0.056,-0.01 c 0.056,0.271 0.109,0.602 0.16,1.003 1.711,0.1 3.304,0.371 4.703,0.793 -0.299,0 -0.601,0.01 -0.903,0.04 -0.297,0.03 -0.587,0.1 -0.87,0.16 -0.907,-0.16 -1.862,-0.271 -2.858,-0.331 0.052,0.502 0.097,1.084 0.136,1.726 -0.27,0.22 -0.528,0.461 -0.77,0.722 0.024,-0.953 0.046,-1.786 0.066,-2.478 -1.175,-0.04 -2.308,-0.01 -3.375,0.1 -0.645,1.355 -1.009,3.09 -1.111,5.157 0.882,-0.141 1.812,-0.211 2.772,-0.241 -0.12,0.271 -0.229,0.562 -0.325,0.853 -0.853,0.03 -1.681,0.09 -2.471,0.22 -0.021,1.395 0.072,2.94 0.283,4.585 0.076,0.592 0.163,1.164 0.253,1.706 0.552,-0.071 1.125,-0.131 1.716,-0.161 0.054,0.221 0.111,0.441 0.175,0.652 -0.612,0.02 -1.206,0.07 -1.773,0.161 0.387,2.046 0.889,3.782 1.497,5.577 0.515,-0.14 1.122,-0.2 1.768,-0.16 l 0.13,0.01 c -0.039,-0.602 -0.03,-1.395 0,-2.297 0.155,0.21 0.317,0.411 0.485,0.612 -0.13,0.601 -0.269,1.173 -0.419,1.685 1.695,0.14 3.003,0.863 2.958,1.675 -0.023,0.432 -0.418,0.793 -1.033,1.044 0.35,-0.191 0.564,-0.452 0.579,-0.733 0.04,-0.712 -1.183,-1.344 -2.733,-1.424 -1.548,-0.081 -2.836,0.441 -2.877,1.143 -0.015,0.291 0.169,0.562 0.497,0.783 -0.413,-0.211 -0.705,-0.482 -0.836,-0.763 -1.399,-0.521 -2.729,-1.304 -3.962,-2.297 -0.677,-0.532 -1.277,-1.113 -1.804,-1.725 -0.112,0.26 -0.179,0.531 -0.195,0.822 l -0.003,0.181 c 2.102,2.508 5.282,4.183 8.918,4.364 2.596,0.13 5.044,-0.522 7.095,-1.746 l -0.024,0.411 c -2.072,1.154 -4.509,1.766 -7.088,1.636 -7.022,-0.341 -12.416,-6.03 -12.048,-12.701 0.368,-6.671 6.359,-11.787 13.38,-11.446 2.578,0.13 4.936,0.983 6.871,2.337 l -0.028,0.502 c -0.245,-0.081 -0.495,-0.151 -0.747,-0.201"
               style="fill:#450900;fill-opacity:1;fill-rule:nonzero;stroke:none"
               id="path10754"
               inkscape:connector-curvature="0" />
          </g>
          <g
             id="g10756"
             transform="translate(119.843,500.878)">
            <path
               d="m 0,0 c -1.503,-0.943 -2.786,-2.307 -2.669,-4.695 0.039,-0.692 0.202,-1.495 0.544,-2.388 0.372,-0.993 0.567,-1.916 0.614,-2.758 0.147,-2.599 -1.1,-4.435 -2.407,-5.608 3.595,-0.361 6.952,2.879 7.519,7.263 C 4.066,-4.595 2.528,-1.334 0,0 z m -3.887,-7.685 c -0.394,1.044 -0.601,2.007 -0.651,2.9 -0.145,2.448 0.963,4.213 2.326,5.417 -3.521,0.221 -6.766,-2.969 -7.323,-7.293 -0.458,-3.532 1.038,-6.752 3.513,-8.126 1.3,0.893 2.775,2.367 2.642,4.855 -0.036,0.662 -0.188,1.405 -0.507,2.247"
               style="fill:#aabf2c;fill-opacity:1;fill-rule:nonzero;stroke:none"
               id="path10758"
               inkscape:connector-curvature="0" />
          </g>
        </g>
      </g>
    </g>
  </g>
</svg>
