<?xml version="1.0" encoding="utf-8"?>
<!-- Generator: Adobe Illustrator 25.0.1, SVG Export Plug-In . SVG Version: 6.00 Build 0)  -->
<svg version="1.1" id="Layer_1" xmlns="http://www.w3.org/2000/svg" xmlns:xlink="http://www.w3.org/1999/xlink" x="0px" y="0px"
	 viewBox="0 0 40.1 33.3" style="enable-background:new 0 0 40.1 33.3;" xml:space="preserve">
<style type="text/css">
	.st0{fill-rule:evenodd;clip-rule:evenodd;fill:#FEFEFE;}
	.st1{fill-rule:evenodd;clip-rule:evenodd;fill:url(#SVGID_1_);}
	.st2{fill-rule:evenodd;clip-rule:evenodd;fill:url(#SVGID_2_);}
	.st3{fill-rule:evenodd;clip-rule:evenodd;fill:#874325;}
	.st4{fill-rule:evenodd;clip-rule:evenodd;fill:#949A30;}
	.st5{fill-rule:evenodd;clip-rule:evenodd;fill:#B5B923;}
	.st6{fill-rule:evenodd;clip-rule:evenodd;fill:#F5B005;}
	.st7{fill-rule:evenodd;clip-rule:evenodd;fill:#793323;}
	.st8{fill-rule:evenodd;clip-rule:evenodd;fill:#5D3E27;}
	.st9{fill-rule:evenodd;clip-rule:evenodd;fill:#FAF9F9;}
	.st10{fill:#FEFEFE;}
	.st11{fill:url(#SVGID_3_);}
	.st12{fill:url(#SVGID_4_);}
	.st13{fill-rule:evenodd;clip-rule:evenodd;fill:#772626;}
	.st14{fill:url(#SVGID_5_);}
	.st15{fill:url(#SVGID_6_);}
	.st16{fill:url(#SVGID_7_);}
</style>
<g id="Capa_x0020_1">
	<path class="st0" d="M20.4,3.3c9.9,0,17.9,6.1,17.9,13.7s-8,13.7-17.9,13.7S2.5,24.6,2.5,17S10.5,3.3,20.4,3.3z"/>
	
		<linearGradient id="SVGID_1_" gradientUnits="userSpaceOnUse" x1="392.7413" y1="-729.7697" x2="374.6613" y2="-761.2296" gradientTransform="matrix(0.2761 0 0 -0.2761 -88.4594 -180.0952)">
		<stop  offset="0" style="stop-color:#B06428"/>
		<stop  offset="1" style="stop-color:#D7B56D"/>
	</linearGradient>
	<path class="st1" d="M37.4,16.1c0,0.3,0,0.6,0,0.8c0,6.9-8,13.2-17.3,13.2c-7.8,0-14.2-3.9-16.1-9.5c0,0,0.1,0,0.1,0
		c3.9-3.7,9.3-4.4,15.4-2.5C26.3,20.2,32.5,21.4,37.4,16.1L37.4,16.1L37.4,16.1z"/>
	
		<linearGradient id="SVGID_2_" gradientUnits="userSpaceOnUse" x1="395.0513" y1="-690.3167" x2="395.1895" y2="-667.3118" gradientTransform="matrix(0.2761 0 0 -0.2761 -88.4594 -180.0952)">
		<stop  offset="0" style="stop-color:#E4F3F6"/>
		<stop  offset="1" style="stop-color:#FEFEFE"/>
	</linearGradient>
	<path class="st2" d="M30.9,7c3,2,4.8,4.4,5.7,5.9c0.1,0.3,0.3,0.6,0.4,0.9c-3.4,0.4-7.1,0.7-10.9,0.7c-8.2,0.2-15.5-0.4-21.9-1.4
		c0.3-1,0.9-2.6,2.3-4C7.6,8.1,8.7,7.5,10.1,7c3.1-1.2,6.5-2.6,11.3-2.4C23.7,4.6,27.3,4.7,30.9,7z"/>
	<path class="st3" d="M18.8,2.6c8.4-0.5,18.8,3.7,20,12.8c0.7,5.4-2.4,9.3-5,11.4c-3,2.3-7.1,4.1-12,4.5c-5.3,0.5-9.7-0.5-13.4-2.8
		c-3.3-2-6-5.7-6.5-9.9c-0.1-0.8-0.1-1.7-0.1-1.7c0-1,0.2-1.8,0.2-2c0.3-1.2,0.7-2.2,1-2.8c0.1-0.2,0.4-0.7,0.8-1.4
		c1.2-1.8,2.5-3,3-3.5C7.1,6.9,8.2,6,10,5C13.3,3.3,16.6,2.8,18.8,2.6z M2.4,10.1c-2.5,4.9-1.9,9.9,1,14.4L5.5,27l3.4,2.7l2.5,1.3
		c0.9,0.4,1.8,0.8,2.8,1.1c4.5,1.4,8.8,1.4,13.3-0.1c0.9-0.3,1.9-0.7,2.7-1.1l2.4-1.5c0.1-0.2,0.4-0.4,0.6-0.5
		c1.6-1.1,3.7-3.9,4.6-5.6c5.9-12-5.4-22.9-17.6-22.8C13.4,0.5,5.5,3.9,2.4,10.1L2.4,10.1z"/>
	<path class="st4" d="M24,18.1L24,18.1L24,18.1c0,0-0.4-0.4-0.6-0.7c0,0-0.4-0.4-0.7-0.7c-0.5-0.5-1.3-1-2.3-1.5
		c-4-2.2-8.6-3.1-13.3-3.5c-0.2,0-0.4,0-0.7,0c-0.1,0-0.6,0-0.6-0.1c0,0,0,0-0.1,0c-0.3,0-0.6,0-0.9,0c-0.3,0.5-0.7,1.3-1,2.3
		c0,0.2-0.2,0.7-0.3,1.4c-0.1,0.8-0.2,2.3,0.2,4.1c0.3-0.2,0.6-0.5,0.9-0.7c0.3-0.3,0.7-0.5,1-0.7c4.2-2.6,8.5-2.9,13.3-1.6
		C20.7,17,22.4,17.5,24,18.1z"/>
	<path class="st5" d="M19.5,14c0.2,0.2,0.2,0.2,0.4,0.3c0.9,0,3,1.8,3.7,2.9c0.7,1,0,1,2,1.3c5.4,0.7,8.1-0.7,10.1-2.8
		c0.3-0.3,0.8-0.9,1.2-1.7c-0.5-0.2-1-0.3-1.4-0.5l0.8,0.5c-0.6-0.1-1.3-0.4-2-0.5c-0.5-0.1-1.6-0.3-2.1-0.4c-0.3,0.1-2.7,0-3.3,0
		c-1.6,0-2.9,0.1-3.3,0.2C24,13.2,22,13.5,19.5,14z"/>
	<path class="st6" d="M17.1,12.6l0,0.4c0.7,0.1,1.5,0.6,2.2,0.9l0.5-0.1c0.2-0.1,0.4-0.1,0.6-0.2c0.3-0.1,0.6-0.2,0.9-0.3
		c0.4-0.1,0.8-0.3,1.2-0.4c-0.1-1-0.2-1.2-0.8-1.8c-0.4-0.3-1.1-0.7-1.8-0.7c-0.2,0-0.8,0-1.4,0.3C17.3,11.3,17.1,12.4,17.1,12.6z"
		/>
	<path class="st7" d="M20.3,13.5c-0.2,0.1-0.3,0.1-0.5,0.2c-0.1,0-0.3,0.1-0.4,0.1c0.1,0,0.1,0,0.2,0c0.8-0.1,2-0.4,2.9-0.5
		c2.1-0.3,4.3-0.5,6.4-0.5c1.2,0,2.2,0.2,3.3,0.2c1.1,0,1.8,0.3,2.1,0.4c0.9,0.2,1.6,0.4,2.2,0.6c-0.3-0.2-0.7-0.4-1-0.5
		c-0.5-0.1-1.2-0.4-1.7-0.6c-4.5-1.3-8.3-0.6-10-0.3C22.9,12.7,21.7,13,20.3,13.5z"/>
	<path class="st7" d="M5.3,11.5c0.4,0,0.8,0.1,1.2,0.1c0.4,0,0.6,0,0.7,0c4.6,0.3,9.2,1.2,13.3,3.5c2.6,1.5,2.4,1.9,3.3,2.6
		c0.1,0.1,0,0,0.1,0.1c-0.7-1.2-2.5-2.8-3.9-3.5L19.5,14c0,0,0,0-0.1,0c0,0-0.1,0-0.1,0c0,0-0.1,0-0.1-0.1c-0.5-0.2-0.8-0.4-1.1-0.5
		c-0.1-0.1-0.2-0.1-0.3-0.1c-0.3-0.1-0.6-0.2-0.8-0.3c0,0,0,0-0.1,0c0,0-0.1,0-0.1,0c0,0-0.1,0-0.2-0.1c-0.1,0-0.1-0.1-0.2-0.1
		c-1.6-0.7-5.1-1.1-5.1-1.1s-3.2-0.4-5.9-0.2c-0.1,0-0.5,0-0.5,0C5.2,11.5,5.2,11.5,5.3,11.5z"/>
	<path class="st8" d="M17.6,10.1c-0.1,0.1-0.2,0.2-0.2,0.3c-0.1,0.1-0.1,0.1-0.2,0.2c-0.1,0.2-0.2,0.3-0.3,0.5
		c0,0.1-0.1,0.3-0.2,0.6c-0.1,0.2-0.1,0.6-0.1,1.1c0.1,0,0.1,0.1,0.2,0.1c0.1,0,0.2,0.1,0.3,0.1c0,0,0-0.1,0-0.2c0,0,0-0.1,0-0.2
		c0.2-1.3,1.2-1.9,1.2-1.9c0.4-0.2,0.9-0.4,1.4-0.3c0.7,0,1.4,0.3,1.8,0.7c0.6,0.5,0.7,0.8,0.8,1.8c0-0.2,0.1-0.5,0-0.9
		c0-0.4-0.2-0.8-0.3-1c-0.1-0.2-0.2-0.3-0.3-0.4c0,0-0.3-0.4-0.5-0.5c-0.1,0-0.1-0.1-0.1-0.1c0,0-0.1-0.1-0.1-0.1
		c-0.4-0.2-0.7-0.3-1-0.4c-1-0.1-1.8,0.3-2,0.5C17.8,9.9,17.6,10,17.6,10.1z"/>
	<path class="st9" d="M19.6,13.8C19.6,13.8,19.6,13.8,19.6,13.8c-0.1,0.1-0.1,0.1-0.1,0.1c0,0,0,0,0,0c0,0,0,0,0.1,0
		c2.4-0.5,4.5-0.7,6.1-0.8c0.4,0,1.7-0.1,3.3-0.2c0.6,0,3,0.1,3.3,0c-1-0.1-2.2-0.2-3.3-0.2C25.3,12.7,22.2,13.2,19.6,13.8z"/>
	<path class="st10" d="M-23,25.8"/>
	<path class="st10" d="M-12.1,34.1"/>
	<linearGradient id="SVGID_3_" gradientUnits="userSpaceOnUse" x1="-35.8669" y1="4.2937" x2="-35.8669" y2="4.2937">
		<stop  offset="0" style="stop-color:#B06428"/>
		<stop  offset="1" style="stop-color:#D7B56D"/>
	</linearGradient>
	<path class="st11" d="M-35.9,4.3"/>
	<linearGradient id="SVGID_4_" gradientUnits="userSpaceOnUse" x1="3.0745" y1="11.3715" x2="3.8617" y2="11.3715">
		<stop  offset="0" style="stop-color:#B06428"/>
		<stop  offset="1" style="stop-color:#D7B56D"/>
	</linearGradient>
	<polyline class="st12" points="3.5,11.3 3.9,10.7 3.1,12.1 	"/>
	<path class="st7" d="M19.4,13.9"/>
	<path class="st5" d="M36.2,12.8"/>
	<path class="st7" d="M17,12.9"/>
	<path class="st13" d="M30.2-12.1"/>
</g>
<linearGradient id="SVGID_5_" gradientUnits="userSpaceOnUse" x1="-52.2774" y1="1.1835" x2="-52.2774" y2="1.1835">
	<stop  offset="0" style="stop-color:#B06428"/>
	<stop  offset="1" style="stop-color:#D7B56D"/>
</linearGradient>
<path class="st14" d="M-52.3,1.2"/>
<linearGradient id="SVGID_6_" gradientUnits="userSpaceOnUse" x1="-42.0501" y1="20.8976" x2="-42.0501" y2="20.8976">
	<stop  offset="0" style="stop-color:#B06428"/>
	<stop  offset="1" style="stop-color:#D7B56D"/>
</linearGradient>
<path class="st15" d="M-42.1,20.9"/>
<linearGradient id="SVGID_7_" gradientUnits="userSpaceOnUse" x1="-19.8406" y1="13.0014" x2="-19.8406" y2="13.0014">
	<stop  offset="0" style="stop-color:#B06428"/>
	<stop  offset="1" style="stop-color:#D7B56D"/>
</linearGradient>
<path class="st16" d="M-19.8,13"/>
</svg>
